<svg width="40" height="40" viewBox="0 0 40 40" xmlns="http://www.w3.org/2000/svg"><title>logosimple</title><g id="Symbols" fill="none" fill-rule="evenodd"><g id="logosimple"><g id="Group-2"><path d="M30.507 39.56H8.71C3.92 39.56 0 35.64 0 30.85V9.054C0 4.262 3.92.34 8.711.34h21.796c4.791 0 8.711 3.921 8.711 8.713v21.795c0 4.791-3.92 8.711-8.711 8.711" id="Fill-15" fill="#C92235"/><path d="M19.612 34.71c-.461 0-.922-.167-1.272-.5l-2.917-2.773c-.579-.55-.92-1.525-.815-2.316l2.534-18.847 1.693.228L16.3 29.347c-.034.244.121.683.3.852l2.916 2.773c.047.045.143.045.19.002l2.917-2.775c.178-.17.333-.608.3-.852l-2.537-18.845 1.693-.228 2.536 18.846c.106.792-.238 1.766-.815 2.315l-2.918 2.775c-.35.333-.81.5-1.27.5" id="Fill-16" fill="#FFF"/><path d="M17.379 9.419h4.46V7.843h-4.46V9.42zm4.705 1.745h-4.95a1.503 1.503 0 0 1-1.5-1.502V7.6c0-.828.673-1.5 1.5-1.5h4.95c.827 0 1.5.672 1.5 1.5v2.063c0 .828-.673 1.502-1.5 1.502z" id="Fill-17" fill="#FFF"/><path d="M13.912 25.26a1.21 1.21 0 0 1-.522-.117c-.22-.105-.732-.442-.732-1.316v-3.004c0-.695.262-1.675.608-2.278l3.728-6.514 1.546.883-3.73 6.515c-.191.334-.37 1.01-.37 1.394v2.116l1.262-1.025 1.123 1.381-1.951 1.586c-.36.292-.694.378-.962.378" id="Fill-18" fill="#FFF"/></g></g></g></svg>
